<?xml version="1.0" encoding="UTF-8" standalone="no"?>
<!-- Created with Inkscape (http://www.inkscape.org/) -->

<svg
   width="155.60126mm"
   height="162.49005mm"
   viewBox="0 0 155.60126 162.49005"
   version="1.1"
   id="svg1"
   xml:space="preserve"
   inkscape:version="1.3 (0e150ed6c4, 2023-07-21)"
   sodipodi:docname="logo.svg"
   xmlns:inkscape="http://www.inkscape.org/namespaces/inkscape"
   xmlns:sodipodi="http://sodipodi.sourceforge.net/DTD/sodipodi-0.dtd"
   xmlns="http://www.w3.org/2000/svg"
   xmlns:svg="http://www.w3.org/2000/svg"
   xmlns:rdf="http://www.w3.org/1999/02/22-rdf-syntax-ns#"
   xmlns:cc="http://creativecommons.org/ns#"><sodipodi:namedview
     id="namedview1"
     pagecolor="#fff154"
     bordercolor="#000000"
     borderopacity="0.25"
     inkscape:showpageshadow="2"
     inkscape:pageopacity="0.0"
     inkscape:pagecheckerboard="false"
     inkscape:deskcolor="#d1d1d1"
     inkscape:document-units="mm"
     inkscape:zoom="0.40902388"
     inkscape:cx="122.24225"
     inkscape:cy="220.03605"
     inkscape:window-width="1366"
     inkscape:window-height="750"
     inkscape:window-x="0"
     inkscape:window-y="0"
     inkscape:window-maximized="1"
     inkscape:current-layer="layer1" /><defs
     id="defs1" /><g
     inkscape:label="Layer 1"
     inkscape:groupmode="layer"
     id="layer1"
     transform="translate(-8.2690641,-79.899242)"><g
       id="g5"
       transform="translate(-17.728151,1.3114182)"><path
         d="m 82.096975,78.684384 c -1.082011,0.449825 -1.033381,2.066763 0.121575,3.963322 0.291778,0.461983 0.559242,0.984752 0.607871,1.130641 0.316093,1.069854 -0.765918,2.285597 -5.130435,5.762622 -7.610551,6.066558 -17.069032,12.011541 -27.01381,16.996091 -3.209561,1.60478 -3.50134,1.73851 -7.488977,3.54997 -3.100144,1.3981 -4.097053,1.95734 -4.717082,2.65032 -0.498455,0.53492 -0.5714,0.98475 -0.255306,1.43457 0.158046,0.23099 0.291778,0.26747 0.948279,0.26747 3.647229,0 14.309295,-2.57738 24.375647,-5.89636 4.753555,-1.55615 5.288482,-1.61694 5.616733,-0.5714 0.230991,0.70513 0.316093,19.47621 0.0851,19.60994 -0.0851,0.0608 -0.42551,0.18236 -0.765918,0.27962 -0.960437,0.29178 -6.565012,1.84793 -9.422008,2.626 -5.786937,1.58047 -11.768393,3.22172 -14.467342,3.96333 -12.424894,3.44055 -15.415621,4.29157 -17.178449,4.87513 -0.778075,0.24314 -0.996909,0.37688 -1.191428,0.69297 -0.510612,0.8267 -0.121574,1.92087 0.887493,2.49227 0.838862,0.4863 2.370698,1.04554 4.109211,1.49537 1.215743,0.32825 1.616938,0.37688 3.039357,0.37688 1.629096,0 1.665568,0 4.072739,-0.66866 1.337318,-0.37688 4.242944,-1.19143 6.443438,-1.83577 4.048425,-1.17928 7.403875,-2.09108 15.196788,-4.15785 2.346384,-0.62002 4.850814,-1.30084 5.58026,-1.50752 0.729446,-0.20667 1.349475,-0.37688 1.37379,-0.37688 0.121574,0 -0.145889,0.59572 -0.547085,1.27653 -0.607871,1.02123 -11.233465,17.64043 -13.43396,21.03236 -5.641047,8.66824 -9.628684,13.88378 -18.929118,24.80115 -7.33093,8.59531 -8.23058,9.81105 -7.975274,10.82012 0.158046,0.63218 1.32516,0.79023 2.261282,0.31609 1.045539,-0.52277 4.911601,-3.69586 10.455389,-8.58315 3.914693,-3.45271 5.762622,-5.20338 13.786526,-13.19081 8.096848,-8.04822 12.400579,-12.47352 15.014426,-15.41562 l 1.653411,-1.86009 0.09726,0.70514 c 0.230991,1.60478 -0.437667,14.50381 -1.568308,30.18689 -0.47414,6.73522 -0.765918,9.51927 -1.276531,12.52216 -0.206676,1.16711 -0.449824,2.65032 -0.559241,3.2825 -0.291779,1.7142 -0.279621,6.01793 0.01216,7.47682 1.082011,5.45869 4.498249,10.92953 7.817228,12.53431 1.556151,0.75376 2.698949,0.68082 3.610756,-0.24315 0.838863,-0.8267 1.154956,-1.62909 1.349475,-3.3676 0.328251,-2.96642 0.583557,-12.65589 0.790233,-31.17165 0.328251,-29.2751 0.413353,-33.09253 0.656501,-33.34783 0.07295,-0.0608 0.352566,0.18236 3.610757,3.14877 5.62889,5.09396 10.200084,9.00866 11.658975,9.96909 3.246034,2.15187 6.054397,2.41933 7.586237,0.71729 0.81455,-0.91181 0.98475,-1.43458 0.97259,-3.03936 -0.0122,-2.49227 -0.55924,-5.17906 -1.38594,-6.90542 -1.31301,-2.74758 -4.011955,-5.9693 -5.3128,-6.34618 -0.255306,-0.0729 -1.787142,-0.26746 -3.391923,-0.42551 -5.665362,-0.58355 -11.877809,-1.60478 -13.446117,-2.22481 -0.291779,-0.12157 -0.328251,-0.20667 -0.401196,-1.02122 -0.04863,-0.4863 0,-3.10014 0.109417,-5.81125 0.109417,-2.71111 0.206677,-5.53163 0.230991,-6.27323 0.06079,-1.56831 0.194519,-1.94519 0.887493,-2.32207 0.75376,-0.41336 3.039357,-0.94828 5.519473,-1.30085 1.981661,-0.26746 2.844839,-0.36472 5.531631,-0.62003 0.340408,-0.0365 2.224809,-0.1702 4.194313,-0.30393 8.753348,-0.60788 11.829178,-1.11849 13.543378,-2.29776 0.8267,-0.5714 0.98475,-0.88749 0.98475,-2.01813 0,-0.81455 -0.0486,-1.08201 -0.34041,-1.66557 -0.69297,-1.41026 -2.46796,-2.55306 -5.49516,-3.53781 -3.22172,-1.0577 -4.7414,-1.28869 -8.814132,-1.38595 l -3.100145,-0.0729 -1.738512,1.16711 c -2.17618,1.47105 -3.428396,2.15187 -5.093964,2.78405 -1.726355,0.64435 -3.306821,0.9726 -4.571193,0.92397 l -0.99691,-0.0365 -0.03647,-1.09416 c -0.01216,-0.62003 0.133732,-2.69895 0.340408,-4.7414 0.52277,-5.20338 0.680816,-8.03606 0.498455,-8.85061 -0.352566,-1.58047 -1.398105,-3.28251 -3.136617,-5.09396 -0.692974,-0.70514 -1.252215,-1.34948 -1.252215,-1.41027 0,-0.0729 0.42551,-0.30393 0.948279,-0.51061 2.431486,-1.00906 6.613642,-2.79621 8.595303,-3.671542 5.227695,-2.322069 8.27921,-3.647229 9.385536,-4.048424 1.774985,-0.668659 2.005976,-0.960437 1.993819,-2.540903 -0.01216,-2.455801 -0.802391,-3.805276 -4.133527,-7.124254 -3.112302,-3.100145 -5.288482,-4.814342 -7.574078,-5.969298 -1.677726,-0.838863 -3.659387,-1.27653 -4.413148,-0.972595 z"
         id="path1"
         style="fill:#ada3c2;fill-opacity:1;stroke:none;stroke-width:0.0121574" /><path
         d="m 163.64902,129.27145 c -1.0577,0.27962 -1.6291,0.46198 -2.89347,0.97259 -3.27035,1.30085 -7.34309,2.29776 -26.19926,6.38266 -11.84134,2.56521 -17.23924,3.64722 -18.84402,3.78096 l -0.91181,0.0851 -1.15495,-0.60787 c -0.63219,-0.32825 -1.92088,-1.08201 -2.857,-1.66557 -0.93612,-0.58356 -2.10324,-1.25222 -2.58953,-1.49536 -0.88749,-0.44983 -0.88749,-0.44983 -1.64126,-0.29178 -0.92396,0.19452 -1.54399,0.49845 -2.20049,1.10632 -0.93612,0.86318 -1.37379,2.21266 -1.04554,3.23388 0.1702,0.51061 0.51061,1.04554 1.82362,2.84484 0.46198,0.63218 1.00906,1.4832 1.21574,1.8844 0.49845,0.99691 1.47105,5.14259 4.02411,17.25139 2.0546,9.76242 3.79312,17.8228 4.18215,19.34247 0.42551,1.70204 0.89965,2.91779 1.65341,4.20647 1.7142,2.95426 4.58336,4.79003 6.82032,4.36452 1.16712,-0.23099 1.84793,-1.08201 2.54091,-3.1974 0.20667,-0.62003 0.44982,-1.24006 0.53492,-1.38595 0.41335,-0.63219 1.82362,-1.16711 5.2277,-1.98166 8.80198,-2.11539 15.73171,-2.66248 26.9287,-2.12755 4.20648,0.20668 9.02082,0.25531 9.78674,0.12157 0.97259,-0.18236 1.42241,-0.54708 1.64125,-1.37379 0.18236,-0.69297 0,-1.65341 -0.54709,-2.80836 -0.48629,-1.00907 -0.87533,-1.55615 -1.9695,-2.71111 -0.42551,-0.43767 -0.76592,-0.86318 -0.76592,-0.94828 0,-0.59571 9.33691,-26.52751 10.55265,-29.32372 0.26747,-0.59571 1.41026,-1.81146 3.17309,-3.37977 0.55924,-0.48629 1.11848,-1.05769 1.24006,-1.26437 0.31609,-0.51061 0.29178,-1.34947 -0.0365,-2.01813 -0.32825,-0.63219 -0.68082,-0.87534 -6.47991,-4.19431 -6.43128,-3.69586 -9.13023,-5.04534 -10.02988,-5.03318 -0.17021,0 -0.69298,0.10942 -1.17927,0.23099 z m -3.97548,9.99341 0.32825,0.14589 -0.0729,1.2279 c -0.0973,1.70204 -1.37379,9.23964 -3.6837,21.7618 -1.49536,8.13332 -1.8844,10.02988 -2.10323,10.13929 -0.37688,0.20668 -7.56193,1.544 -16.97178,3.16094 -8.44941,1.45889 -10.71069,1.76282 -11.20915,1.49536 -0.31609,-0.1702 -0.52277,-0.97259 -2.51659,-9.44632 -2.41932,-10.26087 -4.57119,-19.91387 -4.57119,-20.47312 0,-0.1702 0.18236,-0.26746 0.76592,-0.41335 2.56522,-0.64434 25.76159,-5.33711 37.28684,-7.54976 1.15495,-0.21884 2.32207,-0.24315 2.74758,-0.0486 z"
         id="path2"
         style="opacity:1;fill:#8cf29d;fill-opacity:1;stroke:none;stroke-width:0.112;stroke-dasharray:none" /></g><path
       d="m 146.46169,138.34222 c -3.48567,-8.34097 -9.57941,-14.99882 -17.52984,-19.1518 -10.65033,-5.56694 -23.06482,-5.80894 -33.889149,-0.65369 -9.917416,4.71709 -17.294114,13.54852 -20.221303,24.20278 -0.542312,1.95979 -0.707741,2.74326 -0.986829,4.66217 -0.645452,4.38323 -0.520213,8.53024 0.40422,13.19724 0.361109,1.79034 1.889491,6.41454 2.666447,8.06741 1.52641,3.22262 3.214933,5.87501 5.402115,8.50091 1.505041,1.81817 4.00306,4.21223 5.852619,5.62129 l 0.669019,0.51692 -5.968972,11.89031 c -21.286775,42.41551 -20.924875,41.69622 -21.039896,42.26935 -0.353728,1.8605 0.506038,3.62441 2.188054,4.47075 1.637753,0.82405 3.480571,0.51018 4.830156,-0.82154 0.299939,-0.29281 2.788654,-5.18388 13.765986,-26.98636 12.324751,-24.48039 13.418738,-26.61331 13.593123,-26.56023 0.105247,0.039 0.500851,0.20349 0.882727,0.35404 8.915683,3.64019 19.017543,3.75165 27.876403,0.29775 4.98535,-1.94296 8.99447,-4.49506 12.68485,-8.06729 2.43803,-2.36495 4.18025,-4.51834 6.02421,-7.45263 0.77318,-1.23346 2.38232,-4.43148 2.91763,-5.79851 2.84384,-7.27787 3.46358,-14.64168 1.86219,-22.16626 -0.32036,-1.49937 -1.41929,-5.04775 -1.98373,-6.39263 z m -5.74862,9.09592 c 1.15452,6.78661 0.14344,13.35725 -2.98501,19.27156 -3.03941,5.76494 -7.65155,10.17694 -13.66981,13.09788 -1.48099,0.7109 -5.07389,1.89841 -6.73673,2.22662 -3.60827,0.69447 -6.73857,0.7696 -10.29666,0.24814 -5.74839,-0.84002 -11.298378,-3.45233 -15.648403,-7.37456 -7.215926,-6.50836 -10.825404,-16.28451 -9.562811,-25.91809 1.228761,-9.40099 6.761851,-17.61384 14.978261,-22.23 1.495151,-0.8355 2.546156,-1.31205 4.459183,-1.99969 2.12929,-0.75917 3.52908,-1.12949 5.5298,-1.44024 8.51831,-1.33017 17.26797,1.13788 23.89341,6.75283 3.55737,3.00336 6.17979,6.58328 8.23167,11.2282 0.0773,0.17744 0.47576,1.35575 0.87458,2.61699 0.57159,1.81299 0.76918,2.55031 0.93286,3.52025 z"
       id="path1-2"
       style="fill:#5a655d;fill-opacity:1;stroke:none;stroke-width:0.00875944" /></g><metadata
     id="metadata5"><rdf:RDF><cc:Work
         rdf:about=""><cc:license
           rdf:resource="http://creativecommons.org/publicdomain/zero/1.0/" /></cc:Work><cc:License
         rdf:about="http://creativecommons.org/publicdomain/zero/1.0/"><cc:permits
           rdf:resource="http://creativecommons.org/ns#Reproduction" /><cc:permits
           rdf:resource="http://creativecommons.org/ns#Distribution" /><cc:permits
           rdf:resource="http://creativecommons.org/ns#DerivativeWorks" /></cc:License></rdf:RDF></metadata></svg>
